<?xml version="1.0"?>
<svg xmlns="http://www.w3.org/2000/svg" height="512px" viewBox="0 0 512 512" width="512px" class=""><g><path d="m486.398438 204.800781h-25.597657v-105.328125c0-3.746094-1.484375-7.34375-4.132812-9.996094-2.648438-2.648437-6.242188-4.140624-9.992188-4.144531h-20.007812v-65.3125c0-6.34375-5.144531-11.484375-11.488281-11.484375h-318.359376c-6.34375 0-11.488281 5.140625-11.488281 11.484375v65.3125h-20.007812c-3.75.003907-7.34375 1.496094-9.992188 4.144531-2.648437 2.652344-4.132812 6.25-4.132812 9.996094v105.328125h-25.597657c-9.425781 0-17.066406 7.640625-17.066406 17.066407v264.53125c0 9.425781 7.640625 17.066406 17.066406 17.066406h460.796876c9.425781 0 17.066406-7.640625 17.066406-17.066406v-264.53125c0-9.425782-7.640625-17.066407-17.066406-17.066407zm0 0" fill="#f0c419" data-original="#F0C419" class=""/><path d="m497.238281 208.726562-4.097656 4.605469-161.707031 134.742188-54.1875 45.140625c-12.28125 10.324218-30.210938 10.324218-42.492188 0l-54.1875-45.140625-163.5-136.277344-4.609375-.765625c3.21875-3.953125 8.046875-6.242188 13.144531-6.230469h460.796876c3.960937-.003906 7.800781 1.386719 10.839843 3.925781zm0 0" fill="#ffc900" data-original="#FFC900" class="" style="fill:#8900FF" data-old_color="#8900ff"/><path d="m180.566406 348.074219-1.367187 1.707031-162.132813 136.535156h-8.53125v-264.449218c-.003906-3.960938 1.382813-7.796876 3.921875-10.835938l4.609375.765625zm0 0" fill="#f88f00" data-original="#F88F00" class="" style="fill:#6D0EBD" data-old_color="#730DCA"/><path d="m503.464844 486.316406v.082032c-.027344 9.414062-7.652344 17.039062-17.066406 17.066406h-460.796876c-9.414062-.027344-17.039062-7.652344-17.066406-17.066406v-.082032h8.53125l162.132813-136.535156 1.367187-1.707031 54.1875 45.140625c12.28125 10.324218 30.210938 10.324218 42.492188 0l54.1875-45.140625 1.367187 1.707031 162.132813 136.535156zm0 0" fill="#e15919" data-original="#E15919" class="" style="fill:#6307B1" data-old_color="#6306B2"/><path d="m503.464844 221.867188v264.449218h-8.53125l-15.703125-13.226562-146.429688-123.308594-1.367187-1.707031 147.796875-123.136719 13.910156-11.605469 4.097656-4.605469c3.949219 3.214844 6.238281 8.042969 6.226563 13.140626zm0 0" fill="#e15919" data-original="#E15919" class="" style="fill:#6307B1" data-old_color="#6306B2"/><path d="m479.230469 224.9375v248.152344l-146.429688-123.308594-1.367187-1.707031zm0 0" fill="#f88f00" data-original="#F88F00" class="" style="fill:#6D0EBD" data-old_color="#730DCA"/><path d="m456.703125 89.429688-4.4375 4.4375-170.664063 110.933593h-51.203124l-170.664063-110.933593-7.167969-.511719 1.023438-1.792969c2.640625-3.90625 7.058594-6.242188 11.777344-6.230469h381.265624c3.769532-.023437 7.390626 1.449219 10.070313 4.097657zm0 0" fill="#00c6db" data-original="#00C6DB" class="" style="fill:#1BC9C0" data-old_color="#1bc9c0"/><path d="m230.398438 204.800781h-179.199219v-105.300781c.007812-2.125.472656-4.21875 1.367187-6.144531l7.167969.511719zm0 0" fill="#25a8f5" data-original="#25A8F5" class="" style="fill:#11AFA7" data-old_color="#13ACA4"/><path d="m423.339844 11.863281-5.207032 5.203125-128 68.265625h-68.265624l-128-68.265625-7.59375-1.535156c1.792968-4.253906 5.964843-7.011719 10.578124-6.996094h318.296876c3.054687.007813 5.992187 1.199219 8.191406 3.328125zm0 0" fill="#ffc900" data-original="#FFC900" class="" style="fill:#8900FF" data-old_color="#8900ff"/><path d="m426.667969 20.054688v65.277343h-136.535157l110.933594-59.132812 17.066406-9.132813 5.207032-5.203125c2.125 2.195313 3.316406 5.132813 3.328125 8.191407zm0 0" fill="#e15919" data-original="#E15919" class="" style="fill:#6307B1" data-old_color="#6306B2"/><path d="m401.066406 26.199219v59.132812h-110.933594zm0 0" fill="#f88f00" data-original="#F88F00" class="" style="fill:#6D0EBD" data-old_color="#730DCA"/><path d="m460.800781 99.5v105.300781h-179.199219l153.597657-99.839843 17.066406-11.09375 4.4375-4.4375c2.648437 2.679687 4.125 6.300781 4.097656 10.070312zm0 0" fill="#147ccb" data-original="#147CCB" class="" style="fill:#0E9A93" data-old_color="#1BC9C0"/><path d="m435.199219 104.960938v99.839843h-153.597657zm0 0" fill="#25a8f5" data-original="#25A8F5" class="" style="fill:#11AFA7" data-old_color="#13ACA4"/><path d="m221.867188 85.332031h-136.535157v-65.277343c0-1.558594.320313-3.097657.941407-4.523438l7.59375 1.535156zm0 0" fill="#f88f00" data-original="#F88F00" class="" style="fill:#6D0EBD" data-old_color="#730DCA"/><path d="m512 93.867188c0 4.710937-3.820312 8.53125-8.535156 8.53125-4.710938 0-8.53125-3.820313-8.53125-8.53125 0-4.714844 3.820312-8.535157 8.53125-8.535157 4.714844 0 8.535156 3.820313 8.535156 8.535157zm0 0" data-original="#000000" class="active-path" style="fill:#363636" data-old_color="#000000"/><path d="m17.066406 170.667969c0 4.710937-3.820312 8.53125-8.53125 8.53125-4.714844 0-8.535156-3.820313-8.535156-8.53125 0-4.714844 3.820312-8.535157 8.535156-8.535157 4.710938 0 8.53125 3.820313 8.53125 8.535157zm0 0" data-original="#000000" class="active-path" style="fill:#363636" data-old_color="#000000"/><path d="m486.398438 196.265625h-17.066407v-96.792969c-.007812-12.511718-10.144531-22.652344-22.65625-22.671875h-11.476562v-56.773437c-.011719-11.054688-8.972657-20.011719-20.027344-20.027344h-318.34375c-11.054687.015625-20.015625 8.972656-20.027344 20.027344v56.773437h-11.476562c-12.511719.019531-22.648438 10.160157-22.65625 22.671875v96.792969h-17.066407c-14.140624 0-25.601562 11.460937-25.601562 25.601563v264.53125c0 14.140624 11.460938 25.601562 25.601562 25.601562h460.796876c14.140624 0 25.601562-11.460938 25.601562-25.601562v-264.53125c0-14.140626-11.460938-25.601563-25.601562-25.601563zm-469.332032 278.894531v-252.226562l150.5625 125.441406zm15.136719-261.828125h447.59375l-208.042969 173.332031c-9.078125 7.730469-22.429687 7.730469-31.507812 0zm53.128906-119.464843h351.277344l-157.570313 102.398437h-46.078124l-157.570313-102.398437zm138.675781-17.066407-112-59.734375h287.984376l-112 59.734375zm270.925782 146.132813v252.226562l-150.5625-126.785156zm-184.542969-26.667969 141.875-92.21875v92.21875zm13.875-119.464844 93.867187-50.058593v50.058593zm-230.398437-50.058593 93.867187 50.058593h-93.867187zm-34.132813 77.304687 141.875 92.21875h-141.875zm-34.132813 390.886719c-1.539062-.042969-3.039062-.507813-4.328124-1.347656.453124-.207032.886718-.457032 1.296874-.742188l158.378907-133.378906 48.382812 40.3125c15.375 13.074218 37.960938 13.074218 53.335938 0l48.382812-40.3125 158.378907 133.378906c.410156.285156.84375.535156 1.296874.742188-1.289062.839843-2.789062 1.304687-4.328124 1.347656zm0 0" data-original="#000000" class="active-path" style="fill:#363636" data-old_color="#000000"/><path d="m503.464844 0c-4.710938 0-8.53125 3.820312-8.53125 8.535156v51.199219c0 4.710937 3.820312 8.53125 8.53125 8.53125 4.714844 0 8.535156-3.820313 8.535156-8.53125v-51.199219c0-4.714844-3.820312-8.535156-8.535156-8.535156zm0 0" data-original="#000000" class="active-path" style="fill:#363636" data-old_color="#000000"/><path d="m8.535156 145.066406c4.710938 0 8.53125-3.820312 8.53125-8.53125v-51.203125c0-4.710937-3.820312-8.53125-8.53125-8.53125-4.714844 0-8.535156 3.820313-8.535156 8.53125v51.203125c0 4.710938 3.820312 8.53125 8.535156 8.53125zm0 0" data-original="#000000" class="active-path" style="fill:#363636" data-old_color="#000000"/></g> </svg>
